<svg width="25" height="24" viewBox="0 0 25 24" fill="none" xmlns="http://www.w3.org/2000/svg">
<g clip-path="url(#clip0_3_9384)">
<path d="M24.5 12C24.5 5.37075 19.1248 0 12.5 0C5.87075 0 0.5 5.37075 0.5 12C0.5 17.988 4.88675 22.953 10.625 23.8522V15.4695H7.57775V12.0007H10.625V9.3555C10.625 6.34875 12.4138 4.68825 15.1558 4.68825C16.469 4.68825 17.8438 4.92225 17.8438 4.92225V7.875H16.328C14.84 7.875 14.375 8.80125 14.375 9.75V12H17.7028L17.168 15.4688H14.375V23.8515C20.1087 22.9522 24.5 17.9872 24.5 11.9992V12Z" fill="#3A599C"/>
</g>
<defs>
<clipPath id="clip0_3_9384">
<rect x="0.5" width="24" height="24" rx="12" fill="white"/>
</clipPath>
</defs>
</svg>
