<svg width="25" height="24" viewBox="0 0 25 24" fill="none" xmlns="http://www.w3.org/2000/svg">
<g clip-path="url(#clip0_3_9391)">
<path d="M12.5 0C5.87321 0 0.5 5.37321 0.5 12C0.5 18.6268 5.87321 24 12.5 24C19.1268 24 24.5 18.6268 24.5 12C24.5 5.37321 19.1268 0 12.5 0ZM18.267 9.04554C18.275 9.17143 18.275 9.30268 18.275 9.43125C18.275 13.3634 15.2804 17.8929 9.80804 17.8929C8.12054 17.8929 6.55625 17.4027 5.23839 16.5589C5.47946 16.5857 5.70982 16.5964 5.95625 16.5964C7.34911 16.5964 8.62947 16.125 9.65 15.3268C8.34286 15.3 7.24464 14.4429 6.86964 13.2643C7.32768 13.3313 7.74018 13.3313 8.21161 13.2107C7.53855 13.074 6.93359 12.7084 6.49951 12.1762C6.06542 11.644 5.82898 10.9779 5.83036 10.2911V10.2536C6.22411 10.4759 6.6875 10.6125 7.17232 10.6313C6.76476 10.3596 6.43051 9.99164 6.19923 9.5599C5.96794 9.12817 5.84676 8.64603 5.84643 8.15625C5.84643 7.60179 5.99107 7.09554 6.25089 6.65625C6.99795 7.5759 7.93017 8.32806 8.98696 8.86384C10.0437 9.39961 11.2014 9.70702 12.3848 9.76607C11.9643 7.74375 13.475 6.10714 15.2911 6.10714C16.1482 6.10714 16.9196 6.46607 17.4634 7.04464C18.1357 6.91875 18.7786 6.66696 19.3518 6.32946C19.1295 7.01786 18.6634 7.59911 18.0446 7.96607C18.6446 7.90179 19.2232 7.73571 19.7589 7.50268C19.3545 8.09732 18.8482 8.625 18.267 9.04554Z" fill="#1D9FF4"/>
</g>
<defs>
<clipPath id="clip0_3_9391">
<rect x="0.5" width="24" height="24" rx="12" fill="white"/>
</clipPath>
</defs>
</svg>
