<svg width="20" height="20" viewBox="0 0 20 20" fill="none" xmlns="http://www.w3.org/2000/svg">
<g clip-path="url(#clip0_3_10165)">
<path d="M9.16666 15H10.8333V13.3333H9.16666V15ZM9.99999 1.66663C5.39999 1.66663 1.66666 5.39996 1.66666 9.99996C1.66666 14.6 5.39999 18.3333 9.99999 18.3333C14.6 18.3333 18.3333 14.6 18.3333 9.99996C18.3333 5.39996 14.6 1.66663 9.99999 1.66663ZM9.99999 16.6666C6.32499 16.6666 3.33332 13.675 3.33332 9.99996C3.33332 6.32496 6.32499 3.33329 9.99999 3.33329C13.675 3.33329 16.6667 6.32496 16.6667 9.99996C16.6667 13.675 13.675 16.6666 9.99999 16.6666ZM9.99999 4.99996C8.15832 4.99996 6.66666 6.49163 6.66666 8.33329H8.33332C8.33332 7.41663 9.08332 6.66663 9.99999 6.66663C10.9167 6.66663 11.6667 7.41663 11.6667 8.33329C11.6667 9.99996 9.16666 9.79163 9.16666 12.5H10.8333C10.8333 10.625 13.3333 10.4166 13.3333 8.33329C13.3333 6.49163 11.8417 4.99996 9.99999 4.99996Z" fill="#888888"/>
</g>
<defs>
<clipPath id="clip0_3_10165">
<rect width="20" height="20" fill="white"/>
</clipPath>
</defs>
</svg>
