<svg width="163" height="50" viewBox="0 0 163 50" fill="none" xmlns="http://www.w3.org/2000/svg">
<circle cx="40" cy="25" r="23" stroke="white" stroke-width="4"/>
<circle cx="25" cy="25" r="23" stroke="white" stroke-width="4"/>
<path d="M85.27 32.17H92.17V35.5H81.07V14.56H85.27V32.17ZM104.56 35.71C102.6 35.71 100.8 35.25 99.1595 34.33C97.5195 33.41 96.2195 32.14 95.2595 30.52C94.2995 28.88 93.8195 27.03 93.8195 24.97C93.8195 22.93 94.2995 21.1 95.2595 19.48C96.2195 17.84 97.5195 16.56 99.1595 15.64C100.8 14.72 102.6 14.26 104.56 14.26C106.54 14.26 108.34 14.72 109.96 15.64C111.6 16.56 112.89 17.84 113.83 19.48C114.79 21.1 115.27 22.93 115.27 24.97C115.27 27.03 114.79 28.88 113.83 30.52C112.89 32.14 111.6 33.41 109.96 34.33C108.32 35.25 106.52 35.71 104.56 35.71ZM104.56 31.96C105.82 31.96 106.93 31.68 107.89 31.12C108.85 30.54 109.6 29.72 110.14 28.66C110.68 27.6 110.95 26.37 110.95 24.97C110.95 23.57 110.68 22.35 110.14 21.31C109.6 20.25 108.85 19.44 107.89 18.88C106.93 18.32 105.82 18.04 104.56 18.04C103.3 18.04 102.18 18.32 101.2 18.88C100.24 19.44 99.4895 20.25 98.9495 21.31C98.4095 22.35 98.1395 23.57 98.1395 24.97C98.1395 26.37 98.4095 27.6 98.9495 28.66C99.4895 29.72 100.24 30.54 101.2 31.12C102.18 31.68 103.3 31.96 104.56 31.96ZM132.974 20.86C132.494 19.98 131.834 19.31 130.994 18.85C130.154 18.39 129.174 18.16 128.054 18.16C126.814 18.16 125.714 18.44 124.754 19C123.794 19.56 123.044 20.36 122.504 21.4C121.964 22.44 121.694 23.64 121.694 25C121.694 26.4 121.964 27.62 122.504 28.66C123.064 29.7 123.834 30.5 124.814 31.06C125.794 31.62 126.934 31.9 128.234 31.9C129.834 31.9 131.144 31.48 132.164 30.64C133.184 29.78 133.854 28.59 134.174 27.07H126.974V23.86H138.314V27.52C138.034 28.98 137.434 30.33 136.514 31.57C135.594 32.81 134.404 33.81 132.944 34.57C131.504 35.31 129.884 35.68 128.084 35.68C126.064 35.68 124.234 35.23 122.594 34.33C120.974 33.41 119.694 32.14 118.754 30.52C117.834 28.9 117.374 27.06 117.374 25C117.374 22.94 117.834 21.1 118.754 19.48C119.694 17.84 120.974 16.57 122.594 15.67C124.234 14.75 126.054 14.29 128.054 14.29C130.414 14.29 132.464 14.87 134.204 16.03C135.944 17.17 137.144 18.78 137.804 20.86H132.974ZM151.142 35.71C149.182 35.71 147.382 35.25 145.742 34.33C144.102 33.41 142.802 32.14 141.842 30.52C140.882 28.88 140.402 27.03 140.402 24.97C140.402 22.93 140.882 21.1 141.842 19.48C142.802 17.84 144.102 16.56 145.742 15.64C147.382 14.72 149.182 14.26 151.142 14.26C153.122 14.26 154.922 14.72 156.542 15.64C158.182 16.56 159.472 17.84 160.412 19.48C161.372 21.1 161.852 22.93 161.852 24.97C161.852 27.03 161.372 28.88 160.412 30.52C159.472 32.14 158.182 33.41 156.542 34.33C154.902 35.25 153.102 35.71 151.142 35.71ZM151.142 31.96C152.402 31.96 153.512 31.68 154.472 31.12C155.432 30.54 156.182 29.72 156.722 28.66C157.262 27.6 157.532 26.37 157.532 24.97C157.532 23.57 157.262 22.35 156.722 21.31C156.182 20.25 155.432 19.44 154.472 18.88C153.512 18.32 152.402 18.04 151.142 18.04C149.882 18.04 148.762 18.32 147.782 18.88C146.822 19.44 146.072 20.25 145.532 21.31C144.992 22.35 144.722 23.57 144.722 24.97C144.722 26.37 144.992 27.6 145.532 28.66C146.072 29.72 146.822 30.54 147.782 31.12C148.762 31.68 149.882 31.96 151.142 31.96Z" fill="white"/>
</svg>
