<svg width="20" height="20" viewBox="0 0 20 20" fill="none" xmlns="http://www.w3.org/2000/svg">
<g clip-path="url(#clip0_3_10160)">
<path d="M16.1917 10.8166C16.225 10.55 16.25 10.2833 16.25 9.99996C16.25 9.71663 16.225 9.44996 16.1917 9.18329L17.95 7.80829C18.1083 7.68329 18.15 7.45829 18.05 7.27496L16.3833 4.39163C16.3083 4.25829 16.1667 4.18329 16.0167 4.18329C15.9667 4.18329 15.9167 4.19163 15.875 4.20829L13.8 5.04163C13.3667 4.70829 12.9 4.43329 12.3917 4.22496L12.075 2.01663C12.05 1.81663 11.875 1.66663 11.6667 1.66663H8.33332C8.12499 1.66663 7.94999 1.81663 7.92499 2.01663L7.60832 4.22496C7.09999 4.43329 6.63332 4.71663 6.19999 5.04163L4.12499 4.20829C4.07499 4.19163 4.02499 4.18329 3.97499 4.18329C3.83332 4.18329 3.69166 4.25829 3.61666 4.39163L1.94999 7.27496C1.84165 7.45829 1.89165 7.68329 2.04999 7.80829L3.80832 9.18329C3.77499 9.44996 3.74999 9.72496 3.74999 9.99996C3.74999 10.275 3.77499 10.55 3.80832 10.8166L2.04999 12.1916C1.89165 12.3166 1.84999 12.5416 1.94999 12.725L3.61666 15.6083C3.69166 15.7416 3.83332 15.8166 3.98332 15.8166C4.03332 15.8166 4.08332 15.8083 4.12499 15.7916L6.19999 14.9583C6.63332 15.2916 7.09999 15.5666 7.60832 15.775L7.92499 17.9833C7.94999 18.1833 8.12499 18.3333 8.33332 18.3333H11.6667C11.875 18.3333 12.05 18.1833 12.075 17.9833L12.3917 15.775C12.9 15.5666 13.3667 15.2833 13.8 14.9583L15.875 15.7916C15.925 15.8083 15.975 15.8166 16.025 15.8166C16.1667 15.8166 16.3083 15.7416 16.3833 15.6083L18.05 12.725C18.15 12.5416 18.1083 12.3166 17.95 12.1916L16.1917 10.8166ZM14.5417 9.39163C14.575 9.64996 14.5833 9.82496 14.5833 9.99996C14.5833 10.175 14.5667 10.3583 14.5417 10.6083L14.425 11.55L15.1667 12.1333L16.0667 12.8333L15.4833 13.8416L14.425 13.4166L13.5583 13.0666L12.8083 13.6333C12.45 13.9 12.1083 14.1 11.7667 14.2416L10.8833 14.6L10.75 15.5416L10.5833 16.6666H9.41666L9.25832 15.5416L9.12499 14.6L8.24165 14.2416C7.88332 14.0916 7.54999 13.9 7.21665 13.65L6.45832 13.0666L5.57499 13.425L4.51665 13.85L3.93332 12.8416L4.83332 12.1416L5.57499 11.5583L5.45832 10.6166C5.43332 10.3583 5.41665 10.1666 5.41665 9.99996C5.41665 9.83329 5.43332 9.64163 5.45832 9.39163L5.57499 8.44996L4.83332 7.86663L3.93332 7.16663L4.51665 6.15829L5.57499 6.58329L6.44165 6.93329L7.19165 6.36663C7.54999 6.09996 7.89165 5.89996 8.23332 5.75829L9.11665 5.39996L9.24999 4.45829L9.41666 3.33329H10.575L10.7333 4.45829L10.8667 5.39996L11.75 5.75829C12.1083 5.90829 12.4417 6.09996 12.775 6.34996L13.5333 6.93329L14.4167 6.57496L15.475 6.14996L16.0583 7.15829L15.1667 7.86663L14.425 8.44996L14.5417 9.39163ZM9.99999 6.66663C8.15832 6.66663 6.66665 8.15829 6.66665 9.99996C6.66665 11.8416 8.15832 13.3333 9.99999 13.3333C11.8417 13.3333 13.3333 11.8416 13.3333 9.99996C13.3333 8.15829 11.8417 6.66663 9.99999 6.66663ZM9.99999 11.6666C9.08332 11.6666 8.33332 10.9166 8.33332 9.99996C8.33332 9.08329 9.08332 8.33329 9.99999 8.33329C10.9167 8.33329 11.6667 9.08329 11.6667 9.99996C11.6667 10.9166 10.9167 11.6666 9.99999 11.6666Z" fill="#888888"/>
</g>
<defs>
<clipPath id="clip0_3_10160">
<rect width="20" height="20" fill="white"/>
</clipPath>
</defs>
</svg>
